<svg version="1.1" xmlns="http://www.w3.org/2000/svg" x="0px" y="0px"
	 width="612px" height="612px" viewBox="0 0 612 612" style="enable-background:new 0 0 612 612;">
<g>
	<path fill="#FFFFFF" d="M298.615,493.252H34.343C15.374,493.252,0,477.877,0,458.908V153.091c0-18.972,15.374-34.343,34.343-34.343h444.58
		c18.972,0,34.343,15.374,34.343,34.343v48.083c0,18.972-15.373,34.343-34.343,34.343s-34.344-15.374-34.344-34.343v-13.737H68.689
		v237.125h229.928c18.972,0,34.344,15.373,34.344,34.344C332.961,477.875,317.587,493.252,298.615,493.252z M612,458.908
		c0-18.973-15.373-34.344-34.344-34.344H380.177c-18.973,0-34.344,15.373-34.344,34.344c0,18.969,15.373,34.344,34.344,34.344
		h197.479C596.627,493.252,612,477.877,612,458.908z M612,372.895c0-18.971-15.373-34.342-34.344-34.342H380.177
		c-18.973,0-34.344,15.373-34.344,34.342c0,18.971,15.373,34.344,34.344,34.344h197.479C596.627,407.238,612,391.867,612,372.895z
		 M612,286.883c0-18.972-15.373-34.344-34.344-34.344H380.177c-18.973,0-34.344,15.374-34.344,34.344
		c0,18.97,15.373,34.344,34.344,34.344h197.479C596.627,321.229,612,305.854,612,286.883z M219.433,289.865
		c-28.368-7.267-35.402-10.771-35.402-21.569v-0.467c0-7.968,7.267-14.3,21.087-14.3c11.265,0,22.53,3.998,34.509,11.018
		c2.803,1.663,5.606,2.597,9.149,2.597c9.37,0,16.871-7.281,16.871-16.677c0-7.034-3.998-11.965-7.995-14.301
		c-10.331-6.566-22.036-10.934-34.906-13.023v-12.365c0-8.613-7.005-15.62-15.62-15.62c-8.642,0-15.633,7.005-15.633,15.62v12.254
		c-25.896,4.78-43.356,22.695-43.356,48.083v0.467c0,32.599,21.363,41.75,54.4,50.21c27.448,7.033,33.081,11.703,33.081,20.867
		v0.467c0,9.617-8.929,15.482-23.711,15.482c-15.937,0-29.535-5.646-41.983-14.797c-2.35-1.621-5.618-3.24-10.29-3.24
		c-9.411,0-16.883,7.238-16.883,16.65c0,5.617,2.803,10.77,6.787,13.572c12.722,9.119,27.146,14.863,41.955,17.639v12.928
		c0,8.613,6.993,15.621,15.633,15.621c8.613,0,15.62-7.006,15.62-15.621V389.74c29.137-3.627,48.756-21.213,48.756-50.115v-0.494
		C271.498,310.512,252.719,298.547,219.433,289.865z"/>
</g>
</svg>
