<?xml version="1.0" encoding="utf-8"?>
<svg xmlns="http://www.w3.org/2000/svg" x="0px" y="0px" viewBox="0 0 414.9 581.5"
	 style="enable-background:new 0 0 414.9 581.5;" xml:space="preserve">
<style type="text/css">
	.st0{fill:#ffffff;}
</style>
<path class="st0" d="M415,509.6l-80.8-203c0,0,54.8-20.8,65.8-30.1c11-9.3,2.3-20.2,2.3-20.2l-22.5-63.5c0,0,19.6-50.9,24.2-65.1
	c4.6-14.2-10.4-19.7-10.4-19.7l-66.3-30.6c0,0-25.4-53.7-33.5-66.8c-8.1-13.1-23.1-3.8-23.1-3.8l-65.2,23c0,0-65.8-25.7-76.2-25.7
	c-10.4,0-13.3,9.3-13.3,9.3l-31.7,64c0,0-57.8,26.8-71,32.8S7,128.8,7,128.8l25.3,65.8c0,0-21.4,56.4-26,66.2
	c-4.6,9.8,7.5,17.5,7.5,17.5l62.9,29.5L0,504.2c0,0-1.7,26.7,18.5,22.4S97,513.5,97,513.5s28.8,35,45.7,55.8
	c16.7,20.7,30,0.5,30,0.5l32.9-85.4l39.2,91.4c13.9,12.6,23.1,0,23.1,0l51.9-59.6c0,0,51.9,10.4,75,11.5
	C417.9,528.8,415,509.6,415,509.6z M45.6,255.2l24.2-62.4l-24.2-63.4l64-28.5l31.8-62.4l66.5,24.1l65-24.1l30.6,62.4l64.6,28.5
	l-22.5,61.3l25.4,64l-67.5,29l-30.6,63.4l-65.4-24l-65,24l-32.9-63.4L45.6,255.2z M153,534.8l-39.8-47.6c0,0-10.4-5.5-16.7-3.8
	S40,492.7,40,492.7l58.3-154.9l19,40.5c0,0,5.8,7.7,16.2,4.4c10.4-3.3,71.5-24.1,71.5-24.1l14.3,5.5L153,534.8z M314.4,480.7
	c0,0-12.1-1.1-19,6.6c-6.9,7.7-38.1,44.3-38.1,44.3l-34.6-89.2l26-68.9l25.4,8.8c0,0,12.7,4.4,19-6c6.3-10.4,20.2-38.3,20.2-38.3
	l61.1,152L314.4,480.7z"/>
</svg>
