<svg xmlns="http://www.w3.org/2000/svg" viewBox="0 0 66 100.801">
  <path fill="#FFFFFF" d="M56.334,9.228c-12.892-12.305-33.773-12.305-46.667,0c-12.891,12.297-12.891,32.248,0,44.542 c0,0,23.318,21.832,23.318,47.031c0-25.199,23.343-47.031,23.343-47.031C69.225,41.476,69.225,21.525,56.334,9.228z"/>
  <g transform="translate(14,10) scale(0.4)" fill="#294A70"><path d="M6,39.63l2.13,0h.28q-.37.5-.72,1a20.75,20.75,0,0,0-3.42,12V76.29a5,5,0,0,0,4.95,4.95h6.4a5,5,0,0,0,4.95-4.95V72.58H39.26a10.73,10.73,0,0,1-.42-3V66.27a10.69,10.69,0,0,1,6.31-9.77,10.69,10.69,0,0,1,2.44-11.37L50,42.78a10.72,10.72,0,0,1,11.37-2.44A10.69,10.69,0,0,1,71.09,34h3.33a10.69,10.69,0,0,1,9.77,6.31,10.67,10.67,0,0,1,3.8-.69l.44,0h.27l2.13,0a5.1,5.1,0,0,0,5-5c0-1.36,0-2.48,0-3.51A4.9,4.9,0,0,0,91,26.3c-.61,0-1.22,0-1.83,0a8.34,8.34,0,0,0-5.53,2.47c-2.36-5.87-5.33-12.52-7.18-15.2C73.18,8.8,68.37,7.48,65,6.9A95.67,95.67,0,0,0,48.43,5.82h0A95.67,95.67,0,0,0,31.83,6.9c-3.33.58-8.14,1.9-11.44,6.65-1.86,2.67-4.82,9.33-7.18,15.2a8.34,8.34,0,0,0-5.53-2.47c-.61,0-1.22,0-1.83,0A4.9,4.9,0,0,0,1,31.14c0,1,0,2.15,0,3.51A5.1,5.1,0,0,0,6,39.63ZM17,48.92a3.85,3.85,0,0,1,4.82-3.72l9.06,2.38a3.85,3.85,0,0,1-1,7.57H20.81A3.85,3.85,0,0,1,17,51.29ZM96.5,63.3l-3.93-.69a20.38,20.38,0,0,0-2-4.9l2.29-3.27a3,3,0,0,0-.34-3.87l-2.36-2.36a3,3,0,0,0-3.87-.34L83,50.17a20.36,20.36,0,0,0-4.9-2l-.69-3.93a3,3,0,0,0-3-2.5H71.09a3,3,0,0,0-3,2.5l-.69,3.93a20.38,20.38,0,0,0-4.9,2l-3.27-2.29a3,3,0,0,0-3.87.34L53,50.57a3,3,0,0,0-.34,3.87L55,57.71a20.36,20.36,0,0,0-2,4.9L49,63.3a3,3,0,0,0-2.5,3v3.33a3,3,0,0,0,2.5,3l3.93.69a20.36,20.36,0,0,0,2,4.9l-2.29,3.27A3,3,0,0,0,53,85.32l2.36,2.36a3,3,0,0,0,3.87.34l3.27-2.29a20.38,20.38,0,0,0,4.9,2l.69,3.93a3,3,0,0,0,3,2.5h3.33a3,3,0,0,0,3-2.5l.69-3.93a20.36,20.36,0,0,0,4.9-2L86.26,88a3,3,0,0,0,3.87-.34l2.36-2.36a3,3,0,0,0,.34-3.87l-2.29-3.27a20.38,20.38,0,0,0,2-4.9l3.93-.69a3,3,0,0,0,2.5-3V66.27A3,3,0,0,0,96.5,63.3ZM72.76,76.94a9,9,0,1,1,9-9A9,9,0,0,1,72.76,76.94Z"></path></g>
</svg>
