<svg xmlns="http://www.w3.org/2000/svg" width="1653" height="2339" viewBox="0 0 1653 2339"><g transform="translate(0.000000,2339.000000) scale(0.100000,-0.100000)" stroke="none"><path d="M1175 17123c-72-9-245-58-329-92-399-163-698-510-814-943l-27-103-3-4160c-3-3810-1-4168 14-4260 44-270 178-526 384-734 185-187 406-307 685-374l90-22 6930-3c6183-2 6941-1 7036 13 143 21 263 57 388 116 155 73 262 149 386 274 218 217 347 470 390 761 14 98 15 510 12 4239-3 3877-4 4134-20 4200-51 206-125 372-234 524-210 293-533 495-887 556-79 13-850 15-7030 14-3817-1-6954-4-6971-6zm13834-563c87-9 209-39 238-58 7-4-1284-1082-3534-2947-1951-1617-3549-2941-3553-2943-5-2-7035 5820-7084 5868-19 18-18 19 17 33 43 19 166 46 227 50 120 9 13603 6 13689-3zm-11935-2485l2255-1870-2347-2347c-1291-1292-2350-2348-2353-2348-3 0-17 35-30 78l-24 77 0 4110c0 4020 0 4112 19 4180 11 39 25 85 33 103l14 33 88-73c49-40 1104-914 2345-1943zm12633 1930l28-80 3-4110c2-3777 1-4116-14-4185-9-41-22-85-28-98-11-21-133 99-2359 2319-1291 1287-2347 2344-2347 2349 0 9 4681 3892 4686 3888 1-2 15-39 31-83zm-8826-5087c605-502 1121-924 1147-938 40-21 61-25 133-25 78 0 90 3 135 31 27 16 537 434 1134 929 597 494 1091 903 1098 908 10 8 571-547 2388-2364l2375-2374-48-22c-27-12-78-30-113-40-62-17-368-18-6970-18-6416 0-6909 1-6965 17-33 9-87 26-120 39l-60 22 2379 2374c1309 1305 2381 2373 2383 2373 2 0 499-411 1104-912z"/></g></svg>