<svg xmlns="http://www.w3.org/2000/svg" version="1.1" height="79.52725524902344" width="345.73325271606444"><g transform="translate(101.67325515747069,-199.73137512207032)" fill="#ffffff"><title>Интернет-магазин «СКАНМАСТЕР»</title><path d="M15.25 226.70Q14.30 225.17 12.71 224.29Q11.13 223.40 9.33 223.40Q6.55 223.40 5.25 225.55Q3.95 227.70 3.95 231.25Q3.95 234.80 5.25 236.95Q6.55 239.10 9.33 239.10Q12.33 239.10 14.85 237.45L14.85 238.60Q12.33 240.25 9.33 240.25Q5.60 240.25 3.55 237.79Q1.50 235.32 1.50 231.25Q1.50 227.17 3.55 224.71Q5.60 222.25 9.33 222.25Q11.10 222.25 12.68 223.07Q14.25 223.90 15.25 225.35L15.25 226.70ZM33.20 240L30.13 240L20.55 231.45L20.55 240L18.50 240L18.50 222.50L20.55 222.50L20.55 229.82L30.63 222.50L32.60 222.50L22.13 230.10L33.20 240ZM48.71 240L46.53 240L44.31 233.87L37.20 233.87L34.93 240L33.70 240L40.18 222.50L42.36 222.50L48.71 240M43.88 232.72L40.78 224.17L37.63 232.72L43.88 232.72ZM65.21 240L63.16 240L63.16 231.82L53.51 231.82L53.51 240L51.46 240L51.46 222.50L53.51 222.50L53.51 230.67L63.16 230.67L63.16 222.50L65.21 222.50L65.21 240ZM88.59 240L86.54 240L85.71 225.65L78.86 240L77.93 240L71.16 225.82L70.36 240L69.21 240L70.21 222.50L71.86 222.50L78.91 237.27L85.94 222.50L87.59 222.50L88.59 240ZM105.34 240L103.16 240L100.94 233.87L93.84 233.87L91.56 240L90.34 240L96.81 222.50L98.99 222.50L105.34 240M100.51 232.72L97.41 224.17L94.26 232.72L100.51 232.72ZM120.84 226.70Q119.89 225.17 118.30 224.29Q116.71 223.40 114.91 223.40Q112.14 223.40 110.84 225.55Q109.54 227.70 109.54 231.25Q109.54 234.80 110.84 236.95Q112.14 239.10 114.91 239.10Q117.91 239.10 120.44 237.45L120.44 238.60Q117.91 240.25 114.91 240.25Q111.19 240.25 109.14 237.79Q107.09 235.32 107.09 231.25Q107.09 227.17 109.14 224.71Q111.19 222.25 114.91 222.25Q116.69 222.25 118.26 223.07Q119.84 223.90 120.84 225.35L120.84 226.70ZM135.84 223.65L129.99 223.65L129.99 240L127.94 240L127.94 223.65L122.09 223.65L122.09 222.50L135.84 222.50L135.84 223.65ZM151.34 240L138.84 240L138.84 222.50L150.74 222.50L150.74 223.65L140.89 223.65L140.89 230.67L148.84 230.67L148.84 231.82L140.89 231.82L140.89 238.85L151.34 238.85L151.34 240ZM168.47 227.25Q168.47 229.80 166.56 231.04Q164.64 232.27 161.52 232.27Q159.54 232.27 157.39 231.87L157.39 240L155.34 240L155.34 222.50L157.34 222.50Q159.32 222.25 161.52 222.25Q164.64 222.25 166.56 223.49Q168.47 224.72 168.47 227.25M166.02 227.25Q166.02 225.60 164.68 224.50Q163.34 223.40 161.52 223.40Q159.37 223.40 157.39 223.65L157.39 230.72Q159.54 231.12 161.52 231.12Q163.34 231.12 164.68 230.02Q166.02 228.92 166.02 227.25ZM173.51 237.91Q173.51 237.91 173.69 238.09Q173.87 238.27 173.87 238.77Q173.87 239.27 173.51 239.64Q173.15 240 172.65 240Q172.15 240 171.78 239.64Q171.42 239.27 171.42 238.77Q171.42 238.27 171.78 237.91Q172.15 237.55 172.65 237.55Q173.15 237.55 173.51 237.91ZM190.95 227.25Q190.95 229.80 189.04 231.04Q187.12 232.27 184.00 232.27Q182.02 232.27 179.87 231.87L179.87 240L177.82 240L177.82 222.50L179.82 222.50Q181.80 222.25 184.00 222.25Q187.12 222.25 189.04 223.49Q190.95 224.72 190.95 227.25M188.50 227.25Q188.50 225.60 187.16 224.50Q185.82 223.40 184.00 223.40Q181.85 223.40 179.87 223.65L179.87 230.72Q182.02 231.12 184.00 231.12Q185.82 231.12 187.16 230.02Q188.50 228.92 188.50 227.25ZM207.09 226.20Q207.09 226.20 207.94 227.15Q208.80 228.10 208.80 231.25Q208.80 234.40 207.09 236.30Q205.37 238.20 202.40 238.20L202.40 240L200.35 240L200.35 238.20Q197.35 238.20 195.65 236.30Q193.95 234.40 193.95 231.25Q193.95 228.10 195.65 226.20Q197.35 224.30 200.35 224.30L200.35 222.50L202.40 222.50L202.40 224.30Q205.37 224.30 207.09 226.20M200.35 225.45Q198.30 225.47 197.35 227.06Q196.40 228.65 196.40 231.25Q196.40 233.85 197.35 235.44Q198.30 237.02 200.35 237.05L200.35 225.45M205.40 235.44Q205.40 235.44 205.87 234.64Q206.35 233.85 206.35 231.25Q206.35 228.65 205.40 227.06Q204.45 225.47 202.40 225.45L202.40 237.05Q204.45 237.02 205.40 235.44Z"></path></g><g transform="translate(103.1432551562786,-183.0113739013672)" fill="#ffffff"><path d="M6.43 240.01L4.90 240.01L4.66 239.37Q4.64 239.31 4.58 239.31L1.86 239.31Q1.81 239.31 1.78 239.37L1.56 240.01L0.03 240.01L2.30 233.70L4.16 233.70L6.43 240.01M2.37 237.75Q2.35 237.79 2.38 237.83Q2.40 237.87 2.45 237.87L4.01 237.87Q4.12 237.87 4.09 237.75L3.31 235.59Q3.29 235.53 3.22 235.53Q3.16 235.53 3.14 235.59L2.37 237.75ZM15.50 236.82Q15.73 237.08 15.85 237.41Q15.98 237.73 15.98 238.08Q15.98 238.48 15.83 238.83Q15.68 239.17 15.42 239.43Q15.16 239.69 14.81 239.84Q14.46 239.99 14.07 239.99L10.69 239.99L10.69 233.71L14.07 233.71Q14.47 233.71 14.82 233.86Q15.17 234.01 15.44 234.28Q15.67 234.55 15.80 234.89Q15.93 235.23 15.93 235.62Q15.93 236.31 15.50 236.82M12.12 236.05Q12.12 236.13 12.21 236.13L14.01 236.13Q14.20 236.13 14.35 235.98Q14.49 235.83 14.49 235.63Q14.50 235.42 14.36 235.28Q14.21 235.14 14.01 235.14L12.21 235.14Q12.12 235.14 12.12 235.22L12.12 236.05M12.12 238.48Q12.12 238.56 12.21 238.56L14.06 238.56Q14.26 238.56 14.40 238.42Q14.54 238.28 14.54 238.07Q14.54 237.87 14.40 237.72Q14.26 237.57 14.07 237.57L12.21 237.57Q12.12 237.57 12.12 237.65L12.12 238.48ZM26.10 233.70L26.10 235.14L24.10 235.14Q24.04 235.14 24.04 235.20L24.04 240.01L22.60 240.01L22.60 235.20Q22.60 235.14 22.54 235.14L20.53 235.14L20.53 233.70L26.10 233.70ZM35.54 234.64Q35.80 235.10 35.85 235.64Q35.89 236.18 35.89 236.77L35.89 237.38L35.88 237.38Q35.87 237.79 35.80 238.16Q35.73 238.54 35.54 238.88Q35.21 239.47 34.59 239.73Q34.03 239.99 33.11 239.99Q32.21 239.99 31.64 239.73Q31.02 239.46 30.69 238.88Q30.43 238.42 30.38 237.88Q30.34 237.34 30.34 236.75L30.34 236.14L30.35 236.14Q30.37 235.73 30.43 235.36Q30.49 234.98 30.69 234.64Q31.02 234.06 31.64 233.79Q32.21 233.53 33.11 233.53Q34.03 233.53 34.59 233.79Q35.21 234.05 35.54 234.64M34.43 236.77Q34.43 236.34 34.42 235.95Q34.40 235.57 34.27 235.36Q34.25 235.32 34.20 235.26Q34.16 235.20 34.03 235.14Q33.90 235.09 33.69 235.04Q33.47 235.00 33.11 235.00Q32.76 235.00 32.54 235.04Q32.32 235.09 32.20 235.14Q32.08 235.20 32.03 235.26Q31.98 235.32 31.96 235.36Q31.83 235.57 31.82 235.94Q31.80 236.31 31.80 236.73L31.80 236.75Q31.80 237.18 31.82 237.57Q31.83 237.95 31.96 238.16Q31.98 238.19 32.03 238.25Q32.08 238.32 32.20 238.38Q32.32 238.43 32.54 238.48Q32.76 238.52 33.11 238.52Q33.47 238.52 33.69 238.48Q33.90 238.43 34.03 238.38Q34.16 238.32 34.20 238.25Q34.25 238.19 34.27 238.16Q34.40 237.95 34.42 237.58Q34.43 237.21 34.43 236.78L34.43 236.77ZM46.12 233.70L46.12 240.01L44.68 240.01L44.68 237.38Q44.68 237.35 44.64 237.34Q44.61 237.34 44.59 237.36L43.79 239.04L42.67 239.04L41.86 237.37Q41.84 237.34 41.81 237.34Q41.79 237.35 41.79 237.39L41.79 240.01L40.35 240.01L40.35 233.70L41.69 233.70L43.19 236.81Q43.21 236.83 43.23 236.83Q43.25 236.83 43.26 236.81L44.77 233.70L46.12 233.70ZM55.93 234.64Q56.19 235.10 56.23 235.64Q56.28 236.18 56.28 236.77L56.28 237.38L56.27 237.38Q56.25 237.79 56.18 238.16Q56.12 238.54 55.93 238.88Q55.59 239.47 54.97 239.73Q54.41 239.99 53.50 239.99Q52.60 239.99 52.02 239.73Q51.41 239.46 51.08 238.88Q50.81 238.42 50.77 237.88Q50.72 237.34 50.72 236.75L50.72 236.14L50.73 236.14Q50.75 235.73 50.81 235.36Q50.88 234.98 51.08 234.64Q51.41 234.06 52.02 233.79Q52.60 233.53 53.50 233.53Q54.41 233.53 54.97 233.79Q55.59 234.05 55.93 234.64M54.82 236.77Q54.82 236.34 54.80 235.95Q54.78 235.57 54.66 235.36Q54.64 235.32 54.59 235.26Q54.54 235.20 54.41 235.14Q54.29 235.09 54.07 235.04Q53.86 235.00 53.50 235.00Q53.15 235.00 52.92 235.04Q52.70 235.09 52.58 235.14Q52.46 235.20 52.41 235.26Q52.36 235.32 52.34 235.36Q52.22 235.57 52.20 235.94Q52.18 236.31 52.18 236.73L52.18 236.75Q52.18 237.18 52.20 237.57Q52.22 237.95 52.34 238.16Q52.36 238.19 52.41 238.25Q52.46 238.32 52.58 238.38Q52.70 238.43 52.92 238.48Q53.15 238.52 53.50 238.52Q53.86 238.52 54.07 238.48Q54.29 238.43 54.41 238.38Q54.54 238.32 54.59 238.25Q54.64 238.19 54.66 238.16Q54.78 237.95 54.80 237.58Q54.82 237.21 54.82 236.78L54.82 236.77ZM64.02 236.12Q64.41 236.12 64.77 236.27Q65.12 236.43 65.39 236.69Q65.66 236.95 65.81 237.30Q65.96 237.65 65.96 238.06Q65.96 238.45 65.81 238.81Q65.66 239.16 65.40 239.43Q65.13 239.69 64.78 239.85Q64.43 240 64.04 240L60.73 240L60.73 233.71L65.47 233.71L65.47 235.18L62.25 235.18Q62.17 235.18 62.17 235.27L62.17 236.04Q62.17 236.12 62.25 236.12L64.02 236.12M62.25 237.56Q62.17 237.56 62.17 237.65L62.17 238.47Q62.17 238.55 62.25 238.55L64.04 238.55Q64.24 238.55 64.39 238.40Q64.53 238.25 64.52 238.05Q64.52 237.84 64.38 237.70Q64.23 237.56 64.03 237.56L62.25 237.56ZM71.81 233.70L71.81 236.99Q71.81 237.01 71.82 237.02Q71.83 237.02 71.84 237.00L74.07 233.70L75.38 233.70L75.38 240.01L73.94 240.01L73.94 236.53Q73.94 236.51 73.93 236.50Q73.92 236.50 73.91 236.52L71.65 240.01L70.37 240.01L70.37 233.70L71.81 233.70ZM86.31 240L84.78 240L83.23 235.70Q83.21 235.63 83.15 235.63Q83.08 235.63 83.06 235.70L81.51 240L79.98 240L82.25 233.69L84.04 233.69L86.31 240ZM93.64 236.16Q94.03 236.16 94.38 236.31Q94.73 236.46 95.00 236.72Q95.26 236.99 95.42 237.34Q95.58 237.69 95.58 238.08Q95.58 238.48 95.43 238.83Q95.27 239.19 95.01 239.45Q94.75 239.71 94.40 239.87Q94.05 240.02 93.64 240.02L90.77 240.02L90.77 233.68L92.20 233.68L92.20 236.07Q92.20 236.16 92.29 236.16L93.64 236.16M92.29 237.60Q92.20 237.60 92.20 237.68L92.20 238.49Q92.20 238.58 92.29 238.58L93.64 238.58Q93.85 238.58 94.00 238.43Q94.15 238.28 94.14 238.07Q94.14 237.87 94.00 237.73Q93.85 237.60 93.64 237.60L92.29 237.60ZM113.57 239.11L113.36 239.27Q112.45 239.98 111.26 239.98Q110.60 239.98 110.00 239.75Q109.40 239.51 108.94 239.07Q108.45 238.61 108.19 238.02Q107.93 237.43 107.93 236.77Q107.93 236.11 108.19 235.52Q108.45 234.93 108.94 234.47Q109.40 234.02 110.00 233.79Q110.60 233.56 111.26 233.56Q112.44 233.56 113.35 234.27L113.56 234.42L113.06 235.93L112.65 235.55Q112.37 235.29 112.02 235.16Q111.66 235.02 111.26 235.02Q110.85 235.02 110.50 235.16Q110.14 235.30 109.86 235.56Q109.32 236.08 109.32 236.77Q109.32 237.11 109.46 237.42Q109.60 237.73 109.86 237.97Q110.14 238.24 110.50 238.38Q110.85 238.51 111.26 238.51Q111.66 238.51 112.02 238.38Q112.38 238.24 112.66 237.97L113.07 237.60L113.57 239.11ZM120.68 236.85L123.42 240.01L121.52 240.01L119.68 237.88Q119.64 237.84 119.58 237.86Q119.53 237.88 119.53 237.95L119.53 240.01L118.05 240.01L118.05 233.70L119.53 233.70L119.53 235.76Q119.53 235.82 119.58 235.84Q119.64 235.86 119.68 235.81L121.52 233.70L123.42 233.70L120.68 236.85ZM134.41 240.01L132.88 240.01L132.65 239.37Q132.63 239.31 132.57 239.31L129.85 239.31Q129.80 239.31 129.77 239.37L129.55 240.01L128.02 240.01L130.28 233.70L132.15 233.70L134.41 240.01M130.36 237.75Q130.34 237.79 130.36 237.83Q130.39 237.87 130.44 237.87L131.99 237.87Q132.11 237.87 132.07 237.75L131.30 235.59Q131.27 235.53 131.21 235.53Q131.15 235.53 131.13 235.59L130.36 237.75ZM143.96 236.81Q143.95 236.86 143.96 236.90L145.68 240L143.91 240L142.97 238.16Q142.95 238.10 142.88 238.11Q142.82 238.13 142.82 238.19L142.82 240L141.37 240L141.37 238.19Q141.37 238.13 141.31 238.11Q141.25 238.10 141.23 238.16L140.29 240L138.52 240L140.23 236.90Q140.26 236.86 140.23 236.81L138.57 233.71L140.35 233.71L141.23 235.52Q141.25 235.58 141.31 235.57Q141.37 235.55 141.37 235.48L141.37 233.71L142.82 233.71L142.82 235.49Q142.82 235.55 142.88 235.57Q142.95 235.58 142.97 235.52L143.86 233.71L145.62 233.71L143.96 236.81L143.96 236.81ZM151.17 235.16Q151.10 235.16 151.10 235.23L151.10 236.43Q151.10 236.51 151.17 236.51L154.10 236.51L154.10 237.94L151.17 237.94Q151.10 237.94 151.10 238.02L151.10 238.49Q151.10 238.56 151.17 238.56L154.79 238.56L154.79 240L149.66 240L149.66 233.70L154.79 233.70L154.79 235.16L151.17 235.16ZM164.88 233.70L164.88 235.14L162.88 235.14Q162.82 235.14 162.82 235.20L162.82 240.01L161.38 240.01L161.38 235.20Q161.38 235.14 161.32 235.14L159.31 235.14L159.31 233.70L164.88 233.70ZM182.73 239.11L182.52 239.27Q181.60 239.98 180.41 239.98Q179.76 239.98 179.16 239.75Q178.56 239.51 178.09 239.07Q177.61 238.61 177.34 238.02Q177.08 237.43 177.08 236.77Q177.08 236.11 177.34 235.52Q177.61 234.93 178.09 234.47Q178.56 234.02 179.16 233.79Q179.76 233.56 180.41 233.56Q181.59 233.56 182.51 234.27L182.72 234.42L182.21 235.93L181.81 235.55Q181.53 235.29 181.17 235.16Q180.82 235.02 180.41 235.02Q180.01 235.02 179.65 235.16Q179.30 235.30 179.02 235.56Q178.48 236.08 178.48 236.77Q178.48 237.11 178.62 237.42Q178.76 237.73 179.02 237.97Q179.30 238.24 179.65 238.38Q180.01 238.51 180.41 238.51Q180.82 238.51 181.18 238.38Q181.54 238.24 181.82 237.97L182.22 237.60L182.73 239.11ZM187.21 233.70L192.48 233.70L192.48 239.99L191.03 239.99L191.03 235.14L188.65 235.14L188.65 239.99L187.21 239.99L187.21 233.70L187.21 233.70ZM203.53 240.01L202.00 240.01L201.77 239.37Q201.75 239.31 201.69 239.31L198.97 239.31Q198.92 239.31 198.89 239.37L198.67 240.01L197.14 240.01L199.40 233.70L201.27 233.70L203.53 240.01M199.48 237.75Q199.46 237.79 199.48 237.83Q199.51 237.87 199.56 237.87L201.11 237.87Q201.23 237.87 201.19 237.75L200.42 235.59Q200.39 235.53 200.33 235.53Q200.27 235.53 200.25 235.59L199.48 237.75ZM213.30 239.11L213.09 239.27Q212.17 239.98 210.99 239.98Q210.33 239.98 209.73 239.75Q209.13 239.51 208.66 239.07Q208.18 238.61 207.92 238.02Q207.66 237.43 207.66 236.77Q207.66 236.11 207.92 235.52Q208.18 234.93 208.66 234.47Q209.13 234.02 209.73 233.79Q210.33 233.56 210.99 233.56Q212.17 233.56 213.08 234.27L213.29 234.42L212.79 235.93L212.38 235.55Q212.10 235.29 211.75 235.16Q211.39 235.02 210.99 235.02Q210.58 235.02 210.23 235.16Q209.87 235.30 209.59 235.56Q209.05 236.08 209.05 236.77Q209.05 237.11 209.19 237.42Q209.33 237.73 209.59 237.97Q209.87 238.24 210.23 238.38Q210.58 238.51 210.99 238.51Q211.39 238.51 211.75 238.38Q212.11 238.24 212.39 237.97L212.80 237.60L213.30 239.11ZM219.22 233.70L219.22 236.99Q219.22 237.01 219.23 237.02Q219.24 237.02 219.25 237.00L221.48 233.70L222.79 233.70L222.79 240.01L221.35 240.01L221.35 236.53Q221.35 236.51 221.34 236.50Q221.33 236.50 221.32 236.52L219.06 240.01L217.78 240.01L217.78 233.70L219.22 233.70ZM230.68 236.12Q231.07 236.12 231.43 236.27Q231.79 236.43 232.05 236.69Q232.32 236.95 232.47 237.30Q232.62 237.65 232.62 238.06Q232.62 238.45 232.47 238.81Q232.33 239.16 232.06 239.43Q231.79 239.69 231.44 239.85Q231.09 240 230.70 240L227.39 240L227.39 233.71L232.13 233.71L232.13 235.18L228.91 235.18Q228.83 235.18 228.83 235.27L228.83 236.04Q228.83 236.12 228.91 236.12L230.68 236.12M228.91 237.56Q228.83 237.56 228.83 237.65L228.83 238.47Q228.83 238.55 228.91 238.55L230.70 238.55Q230.90 238.55 231.05 238.40Q231.19 238.25 231.18 238.05Q231.18 237.84 231.04 237.70Q230.89 237.56 230.69 237.56L228.91 237.56ZM242.23 234.64Q242.50 235.10 242.54 235.64Q242.59 236.18 242.59 236.77L242.59 237.38L242.58 237.38Q242.56 237.79 242.49 238.16Q242.42 238.54 242.23 238.88Q241.90 239.47 241.28 239.73Q240.72 239.99 239.80 239.99Q238.90 239.99 238.33 239.73Q237.72 239.46 237.38 238.88Q237.12 238.42 237.08 237.88Q237.03 237.34 237.03 236.75L237.03 236.14L237.04 236.14Q237.06 235.73 237.12 235.36Q237.19 234.98 237.38 234.64Q237.72 234.06 238.33 233.79Q238.90 233.53 239.80 233.53Q240.72 233.53 241.28 233.79Q241.90 234.05 242.23 234.64M241.13 236.77Q241.13 236.34 241.11 235.95Q241.09 235.57 240.97 235.36Q240.95 235.32 240.90 235.26Q240.85 235.20 240.72 235.14Q240.60 235.09 240.38 235.04Q240.16 235.00 239.80 235.00Q239.45 235.00 239.23 235.04Q239.01 235.09 238.89 235.14Q238.77 235.20 238.72 235.26Q238.67 235.32 238.65 235.36Q238.53 235.57 238.51 235.94Q238.49 236.31 238.49 236.73L238.49 236.75Q238.49 237.18 238.51 237.57Q238.53 237.95 238.65 238.16Q238.67 238.19 238.72 238.25Q238.77 238.32 238.89 238.38Q239.01 238.43 239.23 238.48Q239.45 238.52 239.80 238.52Q240.16 238.52 240.38 238.48Q240.60 238.43 240.72 238.38Q240.85 238.32 240.90 238.25Q240.95 238.19 240.97 238.16Q241.09 237.95 241.11 237.58Q241.13 237.21 241.13 236.78L241.13 236.77Z" ></path></g><g transform="translate(-0.9000000000000071,-5.217011547088624) scale(0.9)" fill="#ffffff"><path d="M6,39.63l2.13,0h.28q-.37.5-.72,1a20.75,20.75,0,0,0-3.42,12V76.29a5,5,0,0,0,4.95,4.95h6.4a5,5,0,0,0,4.95-4.95V72.58H39.26a10.73,10.73,0,0,1-.42-3V66.27a10.69,10.69,0,0,1,6.31-9.77,10.69,10.69,0,0,1,2.44-11.37L50,42.78a10.72,10.72,0,0,1,11.37-2.44A10.69,10.69,0,0,1,71.09,34h3.33a10.69,10.69,0,0,1,9.77,6.31,10.67,10.67,0,0,1,3.8-.69l.44,0h.27l2.13,0a5.1,5.1,0,0,0,5-5c0-1.36,0-2.48,0-3.51A4.9,4.9,0,0,0,91,26.3c-.61,0-1.22,0-1.83,0a8.34,8.34,0,0,0-5.53,2.47c-2.36-5.87-5.33-12.52-7.18-15.2C73.18,8.8,68.37,7.48,65,6.9A95.67,95.67,0,0,0,48.43,5.82h0A95.67,95.67,0,0,0,31.83,6.9c-3.33.58-8.14,1.9-11.44,6.65-1.86,2.67-4.82,9.33-7.18,15.2a8.34,8.34,0,0,0-5.53-2.47c-.61,0-1.22,0-1.83,0A4.9,4.9,0,0,0,1,31.14c0,1,0,2.15,0,3.51A5.1,5.1,0,0,0,6,39.63ZM17,48.92a3.85,3.85,0,0,1,4.82-3.72l9.06,2.38a3.85,3.85,0,0,1-1,7.57H20.81A3.85,3.85,0,0,1,17,51.29ZM96.5,63.3l-3.93-.69a20.38,20.38,0,0,0-2-4.9l2.29-3.27a3,3,0,0,0-.34-3.87l-2.36-2.36a3,3,0,0,0-3.87-.34L83,50.17a20.36,20.36,0,0,0-4.9-2l-.69-3.93a3,3,0,0,0-3-2.5H71.09a3,3,0,0,0-3,2.5l-.69,3.93a20.38,20.38,0,0,0-4.9,2l-3.27-2.29a3,3,0,0,0-3.87.34L53,50.57a3,3,0,0,0-.34,3.87L55,57.71a20.36,20.36,0,0,0-2,4.9L49,63.3a3,3,0,0,0-2.5,3v3.33a3,3,0,0,0,2.5,3l3.93.69a20.36,20.36,0,0,0,2,4.9l-2.29,3.27A3,3,0,0,0,53,85.32l2.36,2.36a3,3,0,0,0,3.87.34l3.27-2.29a20.38,20.38,0,0,0,4.9,2l.69,3.93a3,3,0,0,0,3,2.5h3.33a3,3,0,0,0,3-2.5l.69-3.93a20.36,20.36,0,0,0,4.9-2L86.26,88a3,3,0,0,0,3.87-.34l2.36-2.36a3,3,0,0,0,.34-3.87l-2.29-3.27a20.38,20.38,0,0,0,2-4.9l3.93-.69a3,3,0,0,0,2.5-3V66.27A3,3,0,0,0,96.5,63.3ZM72.76,76.94a9,9,0,1,1,9-9A9,9,0,0,1,72.76,76.94Z"></path></g></svg>